<?xml version="1.0" encoding="UTF-8"?>
<svg width="64px" height="36px" viewBox="0 0 64 36" version="1.1" xmlns="http://www.w3.org/2000/svg" xmlns:xlink="http://www.w3.org/1999/xlink">
    <title>logo-blue</title>
    <g id="logo-blue" stroke="none" stroke-width="1" fill="none" fill-rule="evenodd">
        <path d="M0.361411421,20.3340752 C1.05794897,26.7724731 15.0677572,31.9114336 32.2483994,31.9114336 C48.2364112,31.9114336 61.4785299,27.4611733 63.8013243,21.6545745 C63.81929,21.8212955 63.8284381,21.9893071 63.8284381,22.1581274 C63.8284381,28.8300685 49.5399555,34.2387454 31.9142191,34.2387454 C14.2884826,34.2387454 -1.42108547e-14,28.8300685 -1.42108547e-14,22.1581274 C-1.42108547e-14,21.538091 0.123400264,20.9289646 0.361411421,20.3340752 Z M20.8528356,9.15883513 L20.852851,15.7955064 C20.852851,17.5958143 22.0305087,18.873726 23.9310706,18.873726 C25.8316326,18.873726 27.0092903,17.5958143 27.0092903,15.7955064 L27.0092722,9.15883513 L30.0462827,9.15883513 L30.0437378,9.16350372 L30.050331,9.15883513 L30.050331,20.8834211 C30.050331,24.8181063 27.8763128,27.0208497 23.9515405,27.0208497 C20.4894609,27.0208497 18.6020612,25.378503 17.921723,22.776194 L20.9424862,22.776163 C21.3458263,23.7906565 22.3971121,24.4476613 23.8847044,24.4476613 C25.8138939,24.4476613 27.0092903,23.3426914 27.0092903,21.786022 L27.0093361,19.6492372 C26.2957953,20.8964687 25.0848313,21.6474226 23.3295461,21.6474226 C20.1347712,21.6474226 17.8777802,19.2469025 17.8329598,15.755033 L17.8322801,9.15883513 L20.8528356,9.15883513 Z M45.5661588,3.76125461 L45.5661588,15.2821206 C45.5661588,18.8580226 43.1759945,21.790282 38.9493888,21.790282 C34.8230372,21.790282 32.3326188,18.8580226 32.3326188,15.2821206 C32.3326188,11.2717842 35.0628154,8.8073772 38.6152085,8.8073772 C40.2285056,8.8073772 41.7653246,9.63423488 42.5586814,10.8861369 L42.5585361,3.76125461 L45.5661588,3.76125461 Z M54.0367082,8.80762424 C58.0184283,8.80762424 60.6014389,11.4886796 60.6527009,15.1785993 L60.6534782,15.2907221 L60.6534782,16.3573588 L50.5627382,16.3574005 C50.9271088,17.9069813 52.1241925,19.0437889 54.0210336,19.06637 L54.0787277,19.0667125 C55.5242399,19.0667125 56.4497942,18.6102311 57.0049237,17.8794663 L60.182583,17.8794183 C59.2576881,20.2327885 57.0303511,21.77382 54.0367082,21.77382 C50.0481867,21.77382 47.4199381,18.8712382 47.4199381,15.2907221 C47.4199381,11.710206 50.0816047,8.80762424 54.0367082,8.80762424 Z M8.788942,9.10813948 L8.788942,21.4059747 L5.78131926,21.4059747 L5.78131926,9.10813948 L8.788942,9.10813948 Z M15.0381137,3.76125461 L15.0381137,21.4059747 L12.030491,21.4059747 L12.030491,3.76125461 L15.0381137,3.76125461 Z M38.9487145,11.5810737 C36.7457011,11.5810737 35.3228582,13.2493102 35.3228582,15.3071841 C35.3228582,17.3650581 36.7791192,19.0332945 38.9487145,19.0332945 C41.1183098,19.0332945 42.5745708,17.3650581 42.5745708,15.3071841 C42.5745708,13.2493102 41.1517278,11.5810737 38.9487145,11.5810737 Z M54.0787277,11.5142377 C52.3647473,11.5142377 51.121566,12.4885514 50.6512924,13.9429118 L50.6372786,13.9871359 L57.5228576,13.9871359 C57.0843325,12.5507552 55.898046,11.5142377 54.0787277,11.5142377 Z M7.5553916,5.24544024 C8.24750167,5.24544024 8.80856774,5.80650631 8.80856774,6.49861638 C8.80856774,7.19072645 8.24750167,7.75179252 7.5553916,7.75179252 C6.86328153,7.75179252 6.30221546,7.19072645 6.30221546,6.49861638 C6.30221546,5.80650631 6.86328153,5.24544024 7.5553916,5.24544024 Z" id="Combined-Shape-Copy-32" fill="#3F37D9"></path>
    </g>
</svg>